<?xml version="1.0" standalone="no"?>
<!DOCTYPE svg PUBLIC "-//W3C//DTD SVG 20010904//EN"
 "http://www.w3.org/TR/2001/REC-SVG-20010904/DTD/svg10.dtd">
<svg version="1.0" xmlns="http://www.w3.org/2000/svg"
 width="400.000000pt" height="400.000000pt" viewBox="0 0 400.000000 400.000000"
 preserveAspectRatio="xMidYMid meet">
<metadata>
Created by potrace 1.16, written by Peter Selinger 2001-2019
</metadata>
<g transform="translate(0.000000,400.000000) scale(0.100000,-0.100000)"
fill="#000000" stroke="none">
<path d="M3535 2440 c-11 -34 3 -41 64 -34 47 5 65 2 104 -16 81 -38 157 -145
157 -221 0 -20 5 -29 16 -29 14 0 15 7 10 42 -21 133 -129 242 -252 256 -24 2
-44 9 -44 13 0 19 -49 9 -55 -11z"/>
<path d="M3580 2376 c0 -9 8 -16 18 -16 108 0 207 -106 200 -213 -3 -47 -1
-52 20 -55 27 -4 40 23 24 49 -7 10 -12 29 -12 41 0 13 -9 41 -19 63 -34 74
-104 126 -188 140 -36 6 -43 4 -43 -9z"/>
<path d="M3535 2330 c-9 -27 0 -37 30 -37 20 0 24 4 20 17 -4 14 0 16 27 12
32 -5 32 -6 8 -12 -23 -6 -22 -7 11 -13 43 -9 96 -56 105 -94 7 -25 8 -26 16
-8 5 13 6 3 2 -24 -5 -33 -3 -42 7 -39 7 2 14 11 17 19 3 11 1 11 -8 -1 -8
-12 -9 -7 -4 21 11 64 -60 143 -140 156 -20 3 -36 10 -36 14 0 19 -49 9 -55
-11z m33 3 c-10 -2 -18 -9 -18 -14 0 -6 4 -8 9 -4 5 3 12 1 15 -4 7 -10 -19
-9 -30 1 -10 11 6 28 24 27 15 -1 15 -2 0 -6z m128 -48 c19 -14 39 -36 45 -48
7 -14 1 -11 -17 10 -16 18 -42 39 -59 48 -16 8 -24 15 -16 15 8 0 29 -11 47
-25z"/>
<path d="M220 2281 c0 -30 -4 -40 -20 -44 -12 -3 -20 -14 -20 -26 0 -18 -6
-21 -46 -21 -60 0 -55 -23 7 -30 30 -4 37 -7 21 -10 -28 -6 -30 -24 -2 -28 38
-6 20 -22 -25 -22 -33 0 -45 -4 -45 -15 0 -11 12 -15 48 -16 32 -1 40 -3 24
-7 -30 -9 -30 -26 0 -32 16 -3 9 -6 -21 -10 -62 -7 -67 -30 -7 -30 46 0 64
-16 26 -22 -27 -4 -27 -22 0 -26 38 -6 20 -22 -26 -22 -60 0 -55 -23 7 -30 30
-4 37 -7 21 -10 -30 -6 -30 -23 0 -32 16 -4 8 -6 -24 -7 -36 -1 -48 -5 -48
-16 0 -11 12 -15 45 -15 38 0 45 -3 45 -19 0 -11 9 -22 19 -26 15 -4 21 -17
23 -47 4 -60 28 -63 28 -4 0 25 5 46 10 46 6 0 10 -9 10 -20 0 -27 20 -25 28
3 5 17 8 12 12 -23 6 -57 24 -59 28 -2 3 41 22 61 22 22 0 -27 20 -25 28 3 5
17 8 12 12 -23 3 -25 10 -45 15 -45 6 0 13 20 16 45 3 25 7 35 7 23 2 -28 32
-31 32 -3 0 37 19 20 22 -20 4 -55 22 -55 28 0 4 35 7 40 12 23 8 -28 28 -30
28 -3 0 11 5 20 10 20 6 0 10 -21 10 -46 0 -59 24 -56 28 4 2 30 8 43 23 47
10 4 19 15 19 26 0 16 7 19 45 19 33 0 45 4 45 15 0 11 -13 15 -47 16 -27 1
-38 4 -25 6 12 2 22 11 22 19 0 8 -10 15 -22 16 -13 0 -3 4 21 7 62 8 67 31 7
31 -25 0 -46 5 -46 10 0 6 9 10 20 10 11 0 20 7 20 15 0 8 -9 15 -20 15 -11 0
-20 5 -20 10 0 6 21 10 46 10 60 0 55 23 -7 31 -24 3 -34 7 -21 7 12 1 22 9
22 17 0 8 -10 16 -22 17 -13 0 -3 4 21 7 62 8 67 31 7 31 -25 0 -46 5 -46 10
0 6 9 10 20 10 28 0 25 30 -2 32 -13 0 -3 4 21 7 62 8 67 31 7 31 -40 0 -46 3
-46 21 0 12 -8 23 -20 26 -16 4 -20 14 -20 44 0 28 -4 39 -15 39 -11 0 -15
-11 -15 -40 0 -22 -4 -40 -10 -40 -5 0 -10 9 -10 20 0 27 -28 25 -33 -2 -2
-13 -5 -4 -6 20 -1 30 -5 42 -16 42 -11 0 -15 -11 -15 -40 0 -22 -4 -40 -10
-40 -5 0 -10 9 -10 20 0 27 -28 25 -33 -2 -2 -13 -5 -4 -6 20 -1 30 -5 42 -16
42 -11 0 -15 -12 -16 -42 -1 -24 -4 -33 -6 -20 -5 27 -33 29 -33 2 0 -11 -4
-20 -10 -20 -5 0 -10 18 -10 40 0 29 -4 40 -15 40 -11 0 -15 -12 -16 -42 0
-36 -2 -39 -9 -20 -12 27 -30 29 -30 2 0 -11 -4 -20 -10 -20 -5 0 -10 18 -10
40 0 29 -4 40 -15 40 -11 0 -15 -11 -15 -39z m183 -135 c-92 -23 -143 -75
-143 -148 0 -21 -4 -38 -10 -38 -24 0 3 104 37 142 26 29 92 58 133 57 32 -1
30 -2 -17 -13z m131 -27 c29 -23 62 -79 47 -79 -5 0 -12 9 -16 20 -3 11 -23
33 -43 50 -41 33 -30 42 12 9z m-45 -10 c18 -11 31 -23 28 -26 -3 -3 -16 2
-29 11 -48 34 -154 10 -177 -41 -6 -14 -15 -23 -18 -19 -11 11 32 60 68 78 46
23 87 22 128 -3z m8 -54 c23 -23 33 -42 31 -56 -5 -34 -24 -33 -45 1 -30 51
-77 53 -109 4 -17 -25 -17 -28 -1 -55 9 -16 12 -29 7 -29 -13 0 -30 35 -30 61
0 34 38 69 76 69 24 0 39 -8 57 -30 31 -36 37 -38 29 -7 -8 30 -25 45 -69 62
-36 13 -37 14 -9 14 19 1 39 -10 63 -34z m-147 -15 c-7 -4 -14 -28 -17 -53 -5
-39 -2 -49 20 -71 14 -14 35 -26 46 -26 11 0 23 -5 27 -12 5 -8 -2 -9 -27 -5
-61 12 -106 97 -79 148 18 33 34 49 39 37 2 -6 -2 -14 -9 -18z m108 -54 c2
-10 0 -22 -5 -27 -6 -6 -9 -1 -9 13 1 17 -5 23 -19 23 -15 0 -19 -6 -17 -25 2
-18 0 -22 -9 -13 -6 6 -8 21 -4 33 9 27 58 25 63 -4z m-164 -28 c3 -18 17 -46
31 -62 29 -34 31 -44 9 -53 -10 -3 -26 4 -42 21 -15 14 -21 26 -15 26 7 0 17
-9 23 -20 13 -24 30 -26 30 -5 0 8 -4 15 -9 15 -9 0 -33 47 -46 88 -3 12 -2
22 3 22 5 0 13 -15 16 -32z"/>
<path d="M1190 2282 c0 -37 -1 -38 -29 -34 -22 3 -36 -2 -55 -21 -22 -22 -26
-35 -26 -82 0 -46 4 -60 25 -80 28 -29 70 -32 103 -9 21 14 22 22 22 140 0
117 -1 124 -20 124 -17 0 -20 -7 -20 -38z m-6 -88 c9 -23 7 -87 -3 -102 -5 -8
-17 -12 -27 -10 -15 2 -20 14 -22 52 -2 27 -1 55 2 62 7 19 42 18 50 -2z"/>
<path d="M1620 2280 c0 -22 -4 -40 -10 -40 -5 0 -10 -7 -10 -15 0 -8 5 -15 10
-15 6 0 10 -35 10 -85 0 -78 2 -85 20 -85 18 0 20 7 20 84 0 58 4 86 13 89 10
3 10 9 0 26 -7 11 -13 34 -13 51 0 23 -4 30 -20 30 -17 0 -20 -7 -20 -40z"/>
<path d="M1810 2305 c-15 -17 -5 -35 20 -35 22 0 33 23 17 39 -15 15 -22 14
-37 -4z"/>
<path d="M2080 2180 c0 -133 1 -140 20 -140 19 0 20 7 20 140 0 133 -1 140
-20 140 -19 0 -20 -7 -20 -140z"/>
<path d="M2800 2280 c0 -22 -4 -40 -10 -40 -5 0 -10 -7 -10 -15 0 -8 5 -15 10
-15 6 0 10 -35 10 -85 0 -78 2 -85 20 -85 18 0 20 7 20 85 0 50 4 85 10 85 6
0 10 7 10 15 0 8 -4 15 -10 15 -5 0 -10 18 -10 40 0 33 -3 40 -20 40 -17 0
-20 -7 -20 -40z"/>
<path d="M830 2160 c0 -113 1 -120 20 -120 19 0 20 7 20 120 0 113 -1 120 -20
120 -19 0 -20 -7 -20 -120z"/>
<path d="M2262 2257 c-28 -30 -28 -68 1 -95 18 -17 36 -22 79 -22 42 0 57 -4
62 -16 12 -32 -13 -44 -90 -44 -68 0 -74 -2 -74 -21 0 -20 4 -21 90 -17 100 3
119 15 120 74 0 45 -25 62 -95 66 -49 2 -60 6 -63 22 -5 27 15 36 81 36 50 0
57 2 57 20 0 18 -7 20 -73 20 -64 0 -76 -3 -95 -23z"/>
<path d="M3580 2265 c0 -8 8 -15 18 -15 14 0 15 2 2 10 -17 11 -1 13 25 4 12
-5 13 -9 5 -14 -9 -5 -6 -10 9 -15 11 -3 21 -11 21 -17 0 -5 7 -8 15 -4 8 3
19 -2 24 -12 6 -9 10 -12 10 -7 0 6 -6 19 -14 29 -8 11 -15 14 -15 7 0 -7 -4
-10 -10 -6 -5 3 -7 11 -4 18 3 8 -9 18 -29 25 -44 16 -57 15 -57 -3z"/>
<path d="M935 2225 c-22 -22 -25 -32 -25 -105 0 -73 2 -80 20 -80 18 0 20 7
20 74 0 76 13 104 44 93 11 -5 16 -27 18 -84 3 -72 5 -78 26 -81 21 -3 22 -1
22 78 0 73 -3 83 -25 105 -13 14 -36 25 -50 25 -14 0 -37 -11 -50 -25z"/>
<path d="M1923 2233 c-30 -26 -40 -63 -16 -63 15 0 16 -2 3 -10 -9 -5 -15 -25
-15 -50 0 -54 21 -69 92 -69 l55 1 -4 89 c-1 48 -8 93 -14 99 -21 21 -78 23
-101 3z m67 -38 c11 -13 7 -15 -25 -15 -32 0 -36 2 -25 15 7 8 18 15 25 15 7
0 18 -7 25 -15z m-1 -64 c19 -12 4 -51 -20 -51 -22 0 -34 22 -25 45 6 17 24
19 45 6z"/>
<path d="M2907 2230 c-24 -19 -27 -28 -27 -84 0 -76 21 -106 75 -106 38 0 75
31 75 62 0 25 -36 23 -50 -2 -14 -25 -36 -26 -50 -1 -15 30 -14 31 45 31 l55
0 0 38 c-1 48 -19 72 -61 78 -25 4 -41 0 -62 -16z m73 -39 c15 -29 13 -31 -25
-31 -19 0 -35 3 -35 6 0 16 22 44 35 44 8 0 19 -9 25 -19z"/>
<path d="M3090 2238 c-23 -13 -25 -19 -28 -101 -1 -48 -7 -87 -12 -87 -6 0
-10 -9 -10 -20 0 -11 6 -20 14 -20 22 0 26 -24 26 -150 0 -109 -2 -120 -20
-130 -28 -15 -25 -40 5 -40 48 0 57 32 51 187 -3 76 -8 171 -11 211 -9 95 -2
124 28 120 20 -3 22 -9 25 -86 3 -79 4 -83 25 -80 20 3 22 9 25 81 2 60 6 79
19 84 27 11 43 -25 43 -99 0 -61 2 -68 20 -68 18 0 20 7 20 83 -1 117 -9 125
-120 118 -8 -1 -28 1 -45 4 -16 3 -41 0 -55 -7z"/>
<path d="M1270 2160 c0 -67 3 -83 20 -100 25 -25 71 -26 101 -1 21 17 24 30
27 100 l4 81 -26 0 c-25 0 -25 -2 -28 -77 -3 -67 -6 -78 -22 -81 -27 -6 -36
15 -36 91 0 60 -2 67 -20 67 -18 0 -20 -7 -20 -80z"/>
<path d="M1452 2220 c-27 -44 -9 -90 38 -90 34 0 54 -15 47 -34 -5 -11 -19
-16 -52 -16 -38 0 -45 -3 -45 -20 0 -17 7 -20 48 -20 62 0 92 21 92 64 0 40
-15 56 -56 56 -17 0 -34 6 -36 13 -10 25 4 37 43 37 28 0 39 4 39 15 0 11 -13
15 -53 15 -41 0 -55 -4 -65 -20z"/>
<path d="M1716 2224 c-3 -9 -6 -54 -6 -100 0 -77 2 -84 20 -84 18 0 20 7 20
80 0 62 3 82 15 86 8 4 15 12 15 20 0 20 -56 18 -64 -2z"/>
<path d="M1810 2140 c0 -93 1 -100 20 -100 19 0 20 7 20 100 0 93 -1 100 -20
100 -19 0 -20 -7 -20 -100z"/>
<path d="M2463 2223 c33 -111 47 -179 41 -209 -5 -30 -4 -34 15 -34 14 0 23 8
27 28 3 15 12 50 20 77 43 156 43 155 19 155 -18 0 -24 -9 -36 -62 l-15 -63
-14 63 c-13 55 -17 62 -38 62 -19 0 -23 -4 -19 -17z"/>
<path d="M2632 2228 c-7 -7 -12 -26 -12 -43 0 -38 16 -55 51 -55 29 0 55 -23
44 -40 -3 -5 -26 -10 -51 -10 -32 0 -44 -4 -44 -15 0 -8 -11 -25 -25 -39 -24
-24 -25 -30 -25 -158 0 -147 10 -178 56 -178 27 0 32 21 9 40 -12 10 -15 39
-15 142 0 105 3 130 15 134 8 4 15 12 15 19 0 7 18 15 41 18 52 7 63 18 63 62
0 42 -4 47 -51 54 -29 5 -38 11 -38 26 0 16 8 21 38 23 24 2 37 8 37 18 0 18
-90 20 -108 2z"/>
<path d="M3352 2228 c-7 -7 -12 -26 -12 -43 0 -38 16 -55 51 -55 29 0 55 -23
44 -40 -3 -5 -26 -10 -51 -10 -37 0 -44 -3 -44 -20 0 -17 7 -20 39 -20 57 0
89 15 97 45 11 44 -9 73 -53 77 -30 2 -38 7 -38 23 0 16 8 21 43 23 28 2 42 8
42 18 0 18 -100 20 -118 2z"/>
<path d="M3558 2233 c22 -4 22 -6 6 -17 -12 -9 -14 -15 -5 -20 6 -4 14 -1 17
7 3 8 13 14 22 12 9 -1 11 0 5 2 -7 3 -13 9 -13 14 0 5 -12 8 -27 8 -25 -2
-26 -2 -5 -6z"/>
<path d="M3531 2209 c-1 -9 6 -22 14 -29 13 -11 20 -11 40 0 20 11 27 11 42 0
17 -13 17 -13 0 5 -14 16 -21 18 -37 7 -28 -17 -39 -15 -50 11 -6 15 -9 17 -9
6z"/>
<path d="M3684 2166 c0 -19 4 -32 8 -30 10 7 10 35 0 51 -5 8 -8 -1 -8 -21z"/>
<path d="M3710 2168 c0 -9 5 -20 10 -23 14 -9 12 -42 -2 -48 -10 -4 -10 -6 0
-6 21 -2 25 28 8 62 -9 18 -16 25 -16 15z"/>
<path d="M3641 2147 c-1 -21 21 -18 27 4 3 12 2 12 -6 0 -8 -11 -10 -11 -15 0
-4 10 -6 8 -6 -4z"/>
<path d="M3700 2120 c0 -5 5 -10 10 -10 6 0 10 5 10 10 0 6 -4 10 -10 10 -5 0
-10 -4 -10 -10z"/>
<path d="M3680 2100 c0 -5 5 -10 11 -10 5 0 7 5 4 10 -3 6 -8 10 -11 10 -2 0
-4 -4 -4 -10z"/>
<path d="M1100 1985 c0 -19 -4 -35 -10 -35 -5 0 -10 -9 -10 -20 0 -11 5 -20
10 -20 6 0 10 -33 10 -80 0 -78 1 -80 24 -80 23 0 24 3 28 94 2 51 2 112 0
135 -4 36 -7 41 -28 41 -21 0 -24 -5 -24 -35z"/>
<path d="M1370 1885 l0 -135 25 0 25 0 0 135 0 135 -25 0 -25 0 0 -135z"/>
<path d="M1460 1885 c0 -128 1 -135 20 -135 19 0 20 7 20 135 0 128 -1 135
-20 135 -19 0 -20 -7 -20 -135z"/>
<path d="M1545 2010 c-8 -13 13 -40 31 -40 8 0 14 10 14 25 0 18 -5 25 -19 25
-11 0 -23 -5 -26 -10z"/>
<path d="M3592 1900 c3 -135 11 -149 80 -150 51 0 68 27 68 107 0 76 -24 107
-77 101 -31 -4 -33 -2 -33 29 0 27 -4 33 -21 33 -20 0 -21 -4 -17 -120z m108
-50 c0 -41 -3 -50 -22 -56 -28 -8 -48 18 -48 62 0 42 24 68 51 54 15 -8 19
-22 19 -60z"/>
<path d="M830 1870 c0 -113 1 -120 20 -120 19 0 20 7 20 120 0 113 -1 120 -20
120 -19 0 -20 -7 -20 -120z"/>
<path d="M2670 1870 c0 -113 1 -120 20 -120 19 0 20 7 20 120 0 113 -1 120
-20 120 -19 0 -20 -7 -20 -120z"/>
<path d="M2783 1980 c-44 -18 -56 -73 -23 -108 17 -18 32 -22 80 -22 51 0 60
-3 65 -21 10 -30 -9 -39 -87 -39 -61 0 -68 -2 -68 -20 0 -18 7 -20 78 -20 97
0 122 14 122 69 0 51 -19 65 -94 71 -49 4 -61 9 -64 24 -5 27 15 36 81 36 50
0 57 2 57 20 0 18 -6 20 -62 19 -35 0 -73 -4 -85 -9z"/>
<path d="M2980 1871 l0 -121 25 0 26 0 -3 118 c-3 113 -4 117 -25 120 -23 3
-23 2 -23 -117z"/>
<path d="M3250 1870 l0 -121 73 3 c56 2 72 6 72 18 0 11 -13 16 -47 18 l-48 3
0 100 c0 99 0 99 -25 99 l-25 0 0 -120z"/>
<path d="M935 1935 c-22 -22 -25 -32 -25 -105 0 -73 2 -80 20 -80 18 0 20 7
20 75 0 61 3 76 18 83 34 18 42 4 42 -79 0 -78 0 -79 25 -79 25 0 25 1 25 80
0 73 -3 83 -25 105 -13 14 -36 25 -50 25 -14 0 -37 -11 -50 -25z"/>
<path d="M1216 1939 c-23 -18 -26 -27 -26 -83 0 -80 17 -106 70 -106 30 0 43
6 59 26 12 15 21 31 21 35 0 16 -42 10 -55 -7 -14 -19 -55 -11 -55 12 0 10 14
14 56 14 l57 0 -6 47 c-8 77 -65 106 -121 62z m74 -55 c0 -9 -11 -14 -30 -14
-34 0 -41 23 -13 39 20 11 43 -3 43 -25z"/>
<path d="M1660 1942 c-27 -22 -38 -103 -22 -151 7 -21 8 -31 1 -31 -16 0 0
-43 23 -62 27 -24 59 -23 92 3 25 20 26 24 26 119 0 95 -1 99 -26 119 -33 26
-65 27 -94 3z m78 -89 c-4 -56 -30 -80 -54 -49 -34 46 -5 128 37 105 16 -8 19
-19 17 -56z m-8 -118 c-7 -8 -18 -15 -25 -15 -7 0 -18 7 -25 15 -11 13 -7 15
25 15 32 0 36 -2 25 -15z"/>
<path d="M1839 1947 c-44 -33 -54 -126 -18 -171 37 -47 129 -28 129 27 0 22
-36 22 -44 1 -8 -21 -50 -14 -54 9 -3 14 4 17 47 17 l51 0 0 45 c0 33 -6 50
-22 65 -24 22 -65 26 -89 7z m71 -62 c0 -10 -10 -15 -30 -15 -31 0 -39 17 -18
38 14 14 48 -2 48 -23z"/>
<path d="M2005 1935 c-22 -22 -25 -32 -25 -105 0 -72 2 -80 19 -80 16 0 19 9
23 76 3 75 15 98 45 87 9 -4 13 -27 13 -84 0 -78 0 -79 25 -79 25 0 25 1 25
84 0 79 -2 86 -26 105 -35 28 -69 26 -99 -4z"/>
<path d="M2182 1937 c-30 -32 -32 -145 -4 -170 21 -19 87 -23 98 -6 10 16 -12
33 -44 34 -25 0 -27 3 -30 50 -3 52 14 80 45 68 20 -8 35 17 21 34 -17 21 -62
15 -86 -10z"/>
<path d="M2322 1937 c-18 -19 -22 -35 -22 -89 0 -76 16 -98 73 -98 36 0 67 27
67 57 0 18 -37 16 -44 -3 -8 -21 -50 -14 -54 9 -3 14 4 17 47 17 l51 0 0 45
c0 76 -70 113 -118 62z m78 -53 c0 -9 -11 -14 -30 -14 -34 0 -41 23 -13 39 20
11 43 -3 43 -25z"/>
<path d="M3435 1935 c-28 -27 -33 -55 -9 -55 14 0 14 -2 0 -22 -9 -12 -16 -32
-16 -43 0 -11 7 -31 16 -43 13 -19 24 -22 75 -22 l59 0 0 80 c0 73 -3 83 -25
105 -13 14 -36 25 -50 25 -14 0 -37 -11 -50 -25z m73 -27 c19 -19 15 -23 -22
-23 -29 0 -33 2 -25 18 11 20 30 22 47 5z m2 -73 c10 -12 10 -18 0 -30 -25
-30 -67 -7 -49 27 12 22 32 23 49 3z"/>
<path d="M1550 1850 c0 -93 1 -100 20 -100 19 0 20 7 20 100 0 93 -1 100 -20
100 -19 0 -20 -7 -20 -100z"/>
</g>
</svg>
